<svg xmlns="http://www.w3.org/2000/svg" width="24" height="17.513" viewBox="0 0 24 17.513">
  <g id="Group_9" data-name="Group 9" transform="translate(-1034.64 -311.457)" opacity="0.75">
    <path id="Path_4" data-name="Path 4" d="M2.126,10.06a1.8,1.8,0,0,0,2.165.1,16.6,16.6,0,0,1,18.677-.01,1.828,1.828,0,0,0,2.188-.09,1.3,1.3,0,0,0-.116-2.1,20.3,20.3,0,0,0-22.8,0,1.289,1.289,0,0,0-.116,2.1Z" transform="translate(1033 307)" fill="#fff"/>
    <path id="Path_5" data-name="Path 5" d="M6.2,14.09a2.129,2.129,0,0,0,2.3.13,10.8,10.8,0,0,1,10.266,0,2.149,2.149,0,0,0,2.3-.13l.013-.01a1.223,1.223,0,0,0-.164-2.11,15.141,15.141,0,0,0-14.569,0A1.226,1.226,0,0,0,6.2,14.09Z" transform="translate(1033 308.256)" fill="#fff"/>
    <path id="Path_6" data-name="Path 6" d="M9.82,17.82l1.47,1.47a1,1,0,0,0,1.41,0l1.47-1.47a1,1,0,0,0-.23-1.59,4.281,4.281,0,0,0-3.91,0,1.012,1.012,0,0,0-.21,1.59Z" transform="translate(1034.635 309.388)" fill="#fff"/>
  </g>
</svg>
