<svg xmlns="http://www.w3.org/2000/svg" width="24" height="24" viewBox="0 0 24 24">
  <path id="Path_16" data-name="Path 16" d="M14,2A12,12,0,1,0,26,14,12,12,0,0,0,14,2Zm0,21.6A9.6,9.6,0,1,1,23.6,14,9.613,9.613,0,0,1,14,23.6Zm-1.2-4.8h2.4v2.4H12.8ZM14.732,6.848A4.8,4.8,0,0,0,9.416,10.2a1.088,1.088,0,0,0,1.044,1.4h.24a1.155,1.155,0,0,0,1.056-.8,2.4,2.4,0,0,1,2.76-1.536A2.428,2.428,0,0,1,16.4,11.78c-.12,1.608-1.944,1.956-2.94,3.456,0,.012-.012.012-.012.024s-.024.036-.036.06a4,4,0,0,0-.3.6c-.012.036-.036.06-.048.1a.765.765,0,0,0-.024.084,4.461,4.461,0,0,0-.24,1.5h2.4a2.549,2.549,0,0,1,.336-1.284c.024-.036.036-.072.06-.108a3.31,3.31,0,0,1,.336-.468c.012-.012.024-.036.036-.048a4.217,4.217,0,0,1,.4-.408c1.152-1.092,2.712-1.98,2.388-4.272a4.89,4.89,0,0,0-4.02-4.164Z" transform="translate(-2 -2)" fill="#fff" opacity="0.75"/>
</svg>
