<svg xmlns="http://www.w3.org/2000/svg" width="24" height="18.28" viewBox="0 0 24 18.28">
  <g id="Group_44" data-name="Group 44" transform="translate(-611.64 -458.457)">
    <line id="Line_12" data-name="Line 12" y1="3.937" x2="3.911" transform="translate(621.7 471.563)" fill="none" stroke="#fff" stroke-linecap="round" stroke-width="1.75"/>
    <g id="Group_43" data-name="Group 43">
      <g id="Group_35" data-name="Group 35" transform="translate(-423 147)">
        <path id="Path_4" data-name="Path 4" d="M2.126,10.06a1.8,1.8,0,0,0,2.165.1,16.6,16.6,0,0,1,18.677-.01,1.828,1.828,0,0,0,2.188-.09,1.3,1.3,0,0,0-.116-2.1,20.3,20.3,0,0,0-22.8,0,1.289,1.289,0,0,0-.116,2.1Z" transform="translate(1033 307)" fill="#fff" opacity="0.25"/>
        <path id="Path_5" data-name="Path 5" d="M6.2,14.09a2.129,2.129,0,0,0,2.3.13,10.8,10.8,0,0,1,10.266,0,2.149,2.149,0,0,0,2.3-.13l.013-.01a1.223,1.223,0,0,0-.164-2.11,15.141,15.141,0,0,0-14.569,0A1.226,1.226,0,0,0,6.2,14.09Z" transform="translate(1033 308.256)" fill="#fff" opacity="0.25"/>
      </g>
      <g id="Group_41" data-name="Group 41">
        <line id="Line_11" data-name="Line 11" x2="3.911" y2="3.937" transform="translate(621.7 471.563)" fill="none" stroke="#fff" stroke-linecap="round" stroke-width="1.75"/>
      </g>
    </g>
  </g>
</svg>
