<svg xmlns="http://www.w3.org/2000/svg" width="24" height="24.673" viewBox="0 0 24 24.673">
  <path id="Path_17" data-name="Path 17" d="M23.44,15.546a9.614,9.614,0,0,0,.086-1.209,9.614,9.614,0,0,0-.086-1.209l2.6-2.036a.622.622,0,0,0,.148-.79L23.723,6.034a.616.616,0,0,0-.543-.308.576.576,0,0,0-.21.037L19.9,7a9.013,9.013,0,0,0-2.085-1.209l-.469-3.269a.6.6,0,0,0-.6-.518H11.806a.6.6,0,0,0-.6.518l-.469,3.269A9.478,9.478,0,0,0,8.648,7L5.576,5.763a.7.7,0,0,0-.222-.037.611.611,0,0,0-.53.308L2.356,10.3a.608.608,0,0,0,.148.79l2.6,2.036a9.784,9.784,0,0,0-.086,1.209,9.784,9.784,0,0,0,.086,1.209L2.5,17.581a.622.622,0,0,0-.148.79l2.467,4.268a.616.616,0,0,0,.543.308.576.576,0,0,0,.21-.037l3.072-1.234a9.013,9.013,0,0,0,2.085,1.209l.469,3.269a.6.6,0,0,0,.6.518h4.935a.6.6,0,0,0,.6-.518l.469-3.269A9.478,9.478,0,0,0,19.9,21.677l3.072,1.234a.7.7,0,0,0,.222.037.611.611,0,0,0,.53-.308l2.467-4.268a.622.622,0,0,0-.148-.79ZM21,13.436a6.591,6.591,0,0,1,.062.9c0,.259-.025.53-.062.9l-.173,1.394,1.1.864,1.332,1.036-.864,1.493-1.567-.629-1.283-.518-1.11.839a7.225,7.225,0,0,1-1.542.9l-1.308.53-.2,1.394-.247,1.665H13.41l-.234-1.665-.2-1.394-1.308-.53a7,7,0,0,1-1.517-.876L9.03,18.877l-1.308.53-1.567.629-.864-1.493,1.332-1.036,1.1-.864L7.55,15.25c-.037-.382-.062-.666-.062-.913s.025-.53.062-.9l.173-1.394-1.1-.864L5.292,10.142l.864-1.493,1.567.629L9.006,9.8l1.11-.839a7.225,7.225,0,0,1,1.542-.9l1.308-.53.2-1.394.247-1.665h1.715l.234,1.665.2,1.394,1.308.53a7,7,0,0,1,1.517.876L19.5,9.8l1.308-.53,1.567-.629.864,1.493-1.32,1.049-1.1.864L21,13.436ZM14.273,9.4a4.935,4.935,0,1,0,4.935,4.935A4.933,4.933,0,0,0,14.273,9.4Zm0,7.4a2.467,2.467,0,1,1,2.467-2.467A2.475,2.475,0,0,1,14.273,16.8Z" transform="translate(-2.271 -2)" fill="#fff"/>
</svg>
