<svg xmlns="http://www.w3.org/2000/svg" width="21.279" height="20" viewBox="0 0 21.279 20">
  <path id="volume_up-24px" d="M3,11.177v4.729a1.186,1.186,0,0,0,1.182,1.182H7.729l3.889,3.889a1.186,1.186,0,0,0,2.021-.839V6.933a1.186,1.186,0,0,0-2.021-.839l-3.889,3.9H4.182A1.186,1.186,0,0,0,3,11.177Zm15.959,2.364A5.32,5.32,0,0,0,16,8.777v9.516A5.289,5.289,0,0,0,18.959,13.541ZM16,4.616v.236a1.1,1.1,0,0,0,.709,1,8.276,8.276,0,0,1,0,15.368,1.082,1.082,0,0,0-.709,1v.236a1.065,1.065,0,0,0,1.43,1,10.625,10.625,0,0,0,0-19.86,1.061,1.061,0,0,0-1.43,1Z" transform="translate(-3 -3.539)" fill="#fff" opacity="0.75"/>
</svg>
