<svg xmlns="http://www.w3.org/2000/svg" width="20.791" height="20" viewBox="0 0 20.791 20">
  <path id="volume_off-24px" d="M3.728,3.675a1.15,1.15,0,0,0,0,1.629L7.955,9.532l-.335.347H4.155A1.158,1.158,0,0,0,3,11.033v4.62a1.158,1.158,0,0,0,1.155,1.155H7.62l3.8,3.8a1.159,1.159,0,0,0,1.975-.82V14.972L18.224,19.8a7.885,7.885,0,0,1-1.848,1.051,1.156,1.156,0,0,0,.936,2.114,10.414,10.414,0,0,0,2.564-1.513L21.423,23a1.152,1.152,0,0,0,1.629-1.629L5.368,3.675A1.164,1.164,0,0,0,3.728,3.675Zm17.753,9.668a8.057,8.057,0,0,1-.474,2.7l1.767,1.767a10.376,10.376,0,0,0-5.66-14.173,1.048,1.048,0,0,0-1.409.993v.219a1.068,1.068,0,0,0,.7.982A8.109,8.109,0,0,1,21.481,13.343ZM11.42,6.078l-.2.2L13.4,8.446V6.886A1.155,1.155,0,0,0,11.42,6.078Zm7.173,7.265a5.2,5.2,0,0,0-2.888-4.655v2.068L18.57,13.62A2.243,2.243,0,0,0,18.593,13.343Z" transform="translate(-3 -3.338)" fill="#fff" opacity="0.75"/>
</svg>
